<?xml version="1.0" encoding="UTF-8"?>
<svg style="fill:#481173;" width="115px" height="91px" viewBox="0 0 115 91" version="1.1" xmlns="http://www.w3.org/2000/svg" xmlns:xlink="http://www.w3.org/1999/xlink">
    <defs></defs>
    <g id="Page-2" stroke="none" stroke-width="1" fill="none" fill-rule="evenodd">
        <g id="icons" transform="translate(-1598.000000, -1207.000000)" fill="#481173">
            <g id="computer" transform="translate(1598.000000, 1207.000000)">
                <path d="M111.911572,0.100552486 L3.08842795,0.100552486 C1.40611354,0.100552486 0.0753275109,1.45801105 0.0753275109,3.11712707 L0.0753275109,63.6497238 C0.0753275109,65.3339779 1.43122271,66.6662983 3.08842795,66.6662983 L54.4868996,66.6662983 L54.4868996,84.8160221 L30.3067686,84.8160221 C28.6244541,84.8160221 27.2936681,86.1734807 27.2936681,87.8325967 C27.2936681,89.5168508 28.6495633,90.8491713 30.3067686,90.8491713 L84.7183406,90.8491713 C86.400655,90.8491713 87.731441,89.4917127 87.731441,87.8325967 C87.731441,86.1483425 86.3755459,84.8160221 84.7183406,84.8160221 L60.5131004,84.8160221 L60.5131004,66.6662983 L111.911572,66.6662983 C113.593886,66.6662983 114.924672,65.3088398 114.924672,63.6497238 L114.924672,3.14226519 C114.924672,1.45801105 113.568777,0.100552486 111.911572,0.100552486 Z M108.898472,60.6331492 L6.10152838,60.6331492 L6.10152838,6.15883978 L108.873362,6.15883978 L108.873362,60.6331492 L108.898472,60.6331492 Z" id="Shape"></path>
            </g>
        </g>
    </g>
</svg>