<?xml version="1.0" encoding="UTF-8"?>
<svg style="fill:#481173;"  width="115px" height="79px" viewBox="0 0 115 79" version="1.1" xmlns="http://www.w3.org/2000/svg" xmlns:xlink="http://www.w3.org/1999/xlink">
    <defs></defs>
    <g id="Page-2" stroke="none" stroke-width="1" fill="none" fill-rule="evenodd">
        <g id="icons" transform="translate(-2399.000000, -823.000000)" fill="#481173">
            <g id="art" transform="translate(2399.000000, 823.000000)">
                <g id="Group">
                    <path d="M111.911572,0.125796178 L3.08842795,0.125796178 C1.40611354,0.125796178 0.0753275109,1.4843949 0.0753275109,3.14490446 L0.0753275109,75.8299363 C0.0753275109,77.5156051 1.43122271,78.8490446 3.08842795,78.8490446 L111.911572,78.8490446 C113.593886,78.8490446 114.924672,77.4904459 114.924672,75.8299363 L114.924672,3.14490446 C114.924672,1.4843949 113.568777,0.125796178 111.911572,0.125796178 Z M6.10152838,6.18917197 L108.873362,6.18917197 L108.873362,57.7656051 L79.1441048,27.9519108 C77.9639738,26.7694268 76.0556769,26.7694268 74.8755459,27.9519108 L43.941048,58.9480892 L34.5,49.4882166 C33.319869,48.3057325 31.4115721,48.3057325 30.231441,49.4882166 L6.95524017,72.810828 L6.12663755,72.810828 L6.12663755,6.18917197 L6.10152838,6.18917197 Z M49.239083,72.810828 L15.4923581,72.810828 L32.3657205,55.9038217 L49.239083,72.810828 Z M57.7762009,72.810828 L48.209607,63.2251592 L77.0098253,34.3675159 L108.873362,66.294586 L108.873362,72.7856688 L57.7762009,72.7856688 L57.7762009,72.810828 Z" id="Shape"></path>
                    <path d="M39.069869,42.5191083 C47.4061135,42.5191083 54.1855895,35.7261146 54.1855895,27.3732484 C54.1855895,19.0203822 47.4061135,12.2273885 39.069869,12.2273885 C30.7336245,12.2273885 23.9541485,19.0203822 23.9541485,27.3732484 C23.9541485,35.7261146 30.7336245,42.5191083 39.069869,42.5191083 Z M39.069869,18.2907643 C44.0665939,18.2907643 48.1342795,22.3665605 48.1342795,27.3732484 C48.1342795,32.3799363 44.0917031,36.4808917 39.069869,36.4808917 C34.0480349,36.4808917 30.0054585,32.4050955 30.0054585,27.3984076 C30.0054585,22.3917197 34.0731441,18.2907643 39.069869,18.2907643 Z" id="Shape"></path>
                </g>
            </g>
        </g>
    </g>
</svg>