<?xml version="1.0" encoding="UTF-8"?>
<svg style="fill:#481173;"  width="104px" height="104px" viewBox="0 0 104 104" version="1.1" xmlns="http://www.w3.org/2000/svg" xmlns:xlink="http://www.w3.org/1999/xlink">
    <defs></defs>
    <g id="Page-2" stroke="none" stroke-width="1" fill="none" fill-rule="evenodd">
        <g id="icons" transform="translate(-2800.000000, -810.000000)" fill="#481173">
            <g id="gear" transform="translate(2800.000000, 810.000000)">
                <g id="XMLID_231_">
                    <path d="M60.45,104 L44.025,104 C42.575,104 41.3,102.92241 41.025,101.493976 L39.05,91.2944578 C37.175,90.6679518 35.45,89.9913253 33.825,89.1893976 L25.125,95.1036145 C23.925,95.9055422 22.3,95.780241 21.25,94.7277108 L9.65,83.0746988 C8.625,82.0472289 8.45,80.4183133 9.275,79.1903614 L15.15,70.5195181 C14.325,68.8655422 13.6,67.0862651 13,65.2318072 L2.775,63.2520482 C1.35,62.9763855 0.225,61.7233735 0.225,60.2448193 L0.225,43.780241 C0.225,42.326747 1.35,41.0486747 2.8,40.773012 L12.925,38.8183133 C13.55,36.9137349 14.25,35.1595181 15.05,33.5055422 L9.25,24.9349398 C8.425,23.7320482 8.6,22.1031325 9.625,21.0506024 L21.25,9.4226506 C22.3,8.39518072 23.9,8.24481928 25.125,9.04674699 L33.65,14.8607229 C35.35,14.0086747 37.15,13.2819277 39.05,12.6554217 L41,2.5060241 C41.275,1.07759036 42.525,0 44,0 L60.425,0 C61.875,0 63.15,1.07759036 63.425,2.5060241 L65.375,12.6303614 C67.325,13.2568675 69.1,13.9836145 70.75,14.7855422 L79.325,8.97156627 C80.525,8.16963855 82.15,8.29493976 83.2,9.34746988 L94.8,21.0004819 C95.825,22.0279518 96,23.6568675 95.175,24.8848193 L89.325,33.5055422 C90.125,35.1595181 90.85,36.9137349 91.45,38.7431325 L101.575,40.7228916 C103,40.9985542 104,42.2515663 104,43.7301205 L104,60.1445783 C104,61.5980723 103,62.8761446 101.55,63.1518072 L91.45,65.1315663 C90.825,67.0612048 90.125,68.8154217 89.35,70.4443373 L95.25,79.1653012 C96.075,80.3681928 95.925,81.9971084 94.875,83.0496386 L83.25,94.6775904 C82.225,95.7301205 80.6,95.8804819 79.375,95.053494 L70.675,89.1392771 C69,89.9662651 67.225,90.693012 65.4,91.2944578 L63.425,101.519036 C63.15,102.92241 61.9,104 60.45,104 Z M46.525,97.7349398 L57.925,97.7349398 L59.75,88.2621687 C59.975,87.1344578 60.8,86.2322892 61.9,85.9315663 C64.6,85.1546988 67.125,84.1272289 69.375,82.8742169 C70.375,82.3228916 71.625,82.373012 72.575,83.0245783 L80.7,88.5628916 L88.75,80.493494 L83.25,72.3489157 C82.6,71.3966265 82.55,70.1686747 83.125,69.1412048 C84.325,66.9609639 85.325,64.5050602 86.125,61.6231325 C86.425,60.5204819 87.25,59.6684337 88.375,59.4679518 L97.75,57.6385542 L97.75,46.2110843 L88.375,44.3566265 C87.25,44.1310843 86.4,43.3040964 86.075,42.2014458 C85.3,39.4698795 84.3,36.9638554 83.075,34.733494 C82.525,33.7310843 82.575,32.4780723 83.225,31.5257831 L88.675,23.4814458 L80.625,15.4120482 L72.625,20.8501205 C71.675,21.5016867 70.425,21.5518072 69.425,20.9754217 C67.275,19.7725301 64.8,18.7701205 61.875,17.9431325 C60.775,17.6424096 59.925,16.7653012 59.725,15.6375904 L57.925,6.26506024 L46.5,6.26506024 L44.675,15.6626506 C44.45,16.7903614 43.625,17.6925301 42.525,17.993253 C39.75,18.7701205 37.2,19.8226506 34.925,21.1007229 C33.925,21.6520482 32.675,21.6019277 31.725,20.9503614 L23.775,15.5373494 L15.725,23.606747 L21.15,31.6260241 C21.8,32.5783133 21.85,33.8062651 21.3,34.8086747 C20.1,36.9638554 19.125,39.419759 18.325,42.3016867 C18.025,43.4293976 17.075,44.2563855 15.95,44.4819277 L6.5,46.3113253 L6.5,57.7387952 L15.975,59.5681928 C17.1,59.7937349 18.025,60.6207229 18.325,61.7233735 C19.1,64.4549398 20.125,66.9609639 21.4,69.2163855 C21.95,70.2187952 21.9,71.4718072 21.275,72.4240964 L15.775,80.5436145 L23.825,88.613012 L31.95,83.099759 C32.9,82.4481928 34.125,82.3980723 35.15,82.9493976 C37.3,84.1522892 39.725,85.1296386 42.575,85.9315663 C43.675,86.2573494 44.525,87.1093976 44.725,88.2371084 L46.525,97.7349398 Z M101,61.146988 L101.05,61.146988 L101,61.146988 Z M52.225,76.0077108 C45.875,76.0077108 39.85,73.526747 35.275,68.9657831 C29.825,63.5026506 27.375,55.9344578 28.55,48.1908434 C30.1,37.9913253 38.3,29.7966265 48.475,28.2178313 C56.15,27.04 63.725,29.4959036 69.175,34.9590361 C74.625,40.4221687 77.1,47.9903614 75.925,55.7339759 C74.375,65.933494 66.175,74.1281928 56.025,75.706988 L56.025,75.706988 C54.75,75.9074699 53.475,76.0077108 52.225,76.0077108 Z M55.55,73.426506 L55.6,73.426506 L55.55,73.426506 Z M52.25,34.0568675 C51.3,34.0568675 50.375,34.1320482 49.4,34.2824096 C41.95,35.4351807 35.725,41.6751807 34.575,49.1180723 C33.7,54.906988 35.525,60.5706024 39.6,64.6554217 C43.675,68.740241 49.325,70.5696386 55.1,69.6925301 C62.55,68.539759 68.775,62.299759 69.9,54.8318072 C70.775,49.0428916 68.95,43.3792771 64.875,39.2944578 C61.475,35.8862651 57,34.0568675 52.25,34.0568675 Z" id="Shape"></path>
                </g>
            </g>
        </g>
    </g>
</svg>