<?xml version="1.0" encoding="UTF-8"?>
<svg style="fill:#481173;" width="115px" height="94px" viewBox="0 0 115 94" version="1.1" xmlns="http://www.w3.org/2000/svg" xmlns:xlink="http://www.w3.org/1999/xlink">
    <defs></defs>
    <g id="Page-2" stroke="none" stroke-width="1" fill="none" fill-rule="evenodd">
        <g id="icons" transform="translate(-795.000000, -1205.000000)" fill="#481173">
            <g id="chart" transform="translate(795.000000, 1205.000000)">
                <g id="Group">
                    <path d="M21.2172489,51.5491979 L3.08842795,51.5491979 C1.40611354,51.5491979 0.0753275109,52.9064171 0.0753275109,54.5652406 L0.0753275109,90.8834225 C0.0753275109,92.5673797 1.43122271,93.8994652 3.08842795,93.8994652 L21.2172489,93.8994652 C22.8995633,93.8994652 24.2303493,92.542246 24.2303493,90.8834225 L24.2303493,54.5652406 C24.2554585,52.8812834 22.8995633,51.5491979 21.2172489,51.5491979 Z M18.2041485,87.842246 L6.10152838,87.842246 L6.10152838,57.5812834 L18.2041485,57.5812834 L18.2041485,87.842246 Z" id="Shape"></path>
                    <path d="M51.44869,33.3775401 L33.319869,33.3775401 C31.6375546,33.3775401 30.3067686,34.7347594 30.3067686,36.3935829 L30.3067686,90.8582888 C30.3067686,92.542246 31.6626638,93.8743316 33.319869,93.8743316 L51.44869,93.8743316 C53.1310044,93.8743316 54.4617904,92.5171123 54.4617904,90.8582888 L54.4617904,36.4187166 C54.4868996,34.7347594 53.1310044,33.3775401 51.44869,33.3775401 Z M48.4355895,87.842246 L36.3329694,87.842246 L36.3329694,39.4347594 L48.4355895,39.4347594 L48.4355895,87.842246 L48.4355895,87.842246 Z" id="Shape"></path>
                    <path d="M81.680131,45.4919786 L63.55131,45.4919786 C61.8689956,45.4919786 60.5382096,46.8491979 60.5382096,48.5080214 L60.5382096,90.8582888 C60.5382096,92.542246 61.8941048,93.8743316 63.55131,93.8743316 L81.680131,93.8743316 C83.3624454,93.8743316 84.6932314,92.5171123 84.6932314,90.8582888 L84.6932314,48.5080214 C84.6932314,46.8491979 83.3624454,45.4919786 81.680131,45.4919786 Z M78.6670306,87.842246 L66.5644105,87.842246 L66.5644105,51.5491979 L78.6670306,51.5491979 L78.6670306,87.842246 Z" id="Shape"></path>
                    <path d="M111.911572,21.2882353 L93.7827511,21.2882353 C92.1004367,21.2882353 90.7696507,22.6454545 90.7696507,24.3042781 L90.7696507,90.8582888 C90.7696507,92.542246 92.1255459,93.8743316 93.7827511,93.8743316 L111.911572,93.8743316 C113.593886,93.8743316 114.924672,92.5171123 114.924672,90.8582888 L114.924672,24.3042781 C114.924672,22.6454545 113.568777,21.2882353 111.911572,21.2882353 Z M108.898472,87.842246 L96.7958515,87.842246 L96.7958515,27.3203209 L108.898472,27.3203209 L108.898472,87.842246 Z" id="Shape"></path>
                    <path d="M12.1528384,39.4347594 C12.7554585,39.4347594 13.3580786,39.2588235 13.8853712,38.8818182 L42.6353712,18.7497326 L71.2347162,33.302139 C72.3395197,33.8802139 73.6954148,33.6791444 74.6244541,32.8497326 L104.881004,5.35347594 C106.111354,4.22245989 106.21179,2.31229947 105.081878,1.08074866 C103.951965,-0.150802139 102.043668,-0.251336898 100.813319,0.879679144 L72.1135371,26.9684492 L43.7401747,12.5417112 C42.760917,12.0390374 41.5556769,12.1144385 40.6266376,12.7679144 L10.4203057,33.9304813 C9.03930131,34.8855615 8.7128821,36.7705882 9.66703057,38.1529412 C10.2696507,38.9823529 11.19869,39.4347594 12.1528384,39.4347594 Z" id="Shape"></path>
                </g>
            </g>
        </g>
    </g>
</svg>